<svg width="142" height="32" fill="none" xmlns="http://www.w3.org/2000/svg"><path d="M110.052 7V0H142v7h-11.056v25h-9.836V7h-11.056z" fill="url(#paint0_linear_820_73084)"/><path d="M80.88 32l7.54-22.563h.287L96.245 32h11.271L95.383 0h-13.64L69.608 32H80.88z" fill="url(#paint1_linear_820_73084)"/><path d="M37.147 7V0h31.949v7H58.038v25h-9.836V7H37.147z" fill="url(#paint2_linear_820_73084)"/><path d="M0 32V0h9.98v12.938h.502L21.538 0h11.63l-12.42 14.25L33.456 32H21.538l-8.256-12-3.303 3.75V32H0z" fill="url(#paint3_linear_820_73084)"/><defs><linearGradient id="paint0_linear_820_73084" x1="71" y1=".749" x2="71" y2="31.252" gradientUnits="userSpaceOnUse"><stop stop-color="#1BDBF5"/><stop offset="1" stop-color="#27AE60"/></linearGradient><linearGradient id="paint1_linear_820_73084" x1="71" y1=".749" x2="71" y2="31.252" gradientUnits="userSpaceOnUse"><stop stop-color="#1BDBF5"/><stop offset="1" stop-color="#27AE60"/></linearGradient><linearGradient id="paint2_linear_820_73084" x1="71" y1=".749" x2="71" y2="31.252" gradientUnits="userSpaceOnUse"><stop stop-color="#1BDBF5"/><stop offset="1" stop-color="#27AE60"/></linearGradient><linearGradient id="paint3_linear_820_73084" x1="71" y1=".749" x2="71" y2="31.252" gradientUnits="userSpaceOnUse"><stop stop-color="#1BDBF5"/><stop offset="1" stop-color="#27AE60"/></linearGradient></defs></svg>