<svg width="25" height="24" fill="none" xmlns="http://www.w3.org/2000/svg"><path d="M12.36 0h-.054C5.694 0 .333 5.36.333 11.973v.054C.333 18.64 5.693 24 12.306 24h.055c6.612 0 11.972-5.36 11.972-11.973v-.054C24.333 5.36 18.973 0 12.361 0z" fill="#00B0F2"/><path d="M4.879 11.59c.033-.017.067-.033.1-.048.57-.264 1.148-.511 1.724-.758.032 0 .084-.037.113-.048l.134-.058.256-.11.514-.22 1.027-.439L10.8 9.03l2.054-.878 2.054-.879 2.054-.879c.152-.065.317-.163.48-.191.137-.025.271-.072.41-.098.26-.05.549-.07.8.039a.76.76 0 01.233.157c.317.314.273.83.206 1.273l-1.406 9.248c-.064.423-.152.887-.486 1.155-.282.226-.684.251-1.033.155-.349-.096-.657-.299-.959-.498l-3.756-2.487c-.298-.197-.63-.454-.626-.812.002-.215.13-.407.261-.578 1.089-1.419 2.658-2.394 3.826-3.748.165-.19.295-.536.069-.646-.135-.065-.29.024-.413.109l-4.63 3.217c-.504.35-1.032.71-1.639.795-.543.078-1.09-.074-1.615-.228-.44-.13-.88-.263-1.319-.4-.232-.072-.473-.15-.653-.314-.18-.164-.283-.44-.175-.659.068-.137.2-.223.34-.294z" fill="#FEFFFC"/></svg>