<svg width="25" height="24" fill="none" xmlns="http://www.w3.org/2000/svg"><path d="M12.36 0h-.054C5.694 0 .333 5.36.333 11.973v.054C.333 18.64 5.693 24 12.306 24h.055c6.612 0 11.972-5.36 11.972-11.973v-.054C24.333 5.36 18.973 0 12.361 0z" fill="#00E510"/><path d="M14.672 15.51c-3.072 0-5.57-2.5-5.571-5.571a1.415 1.415 0 011.646-1.392c.167.028.325.084.47.169a.08.08 0 01.039.056l.324 2.046a.077.077 0 01-.019.066c-.18.198-.408.341-.663.413l-.122.034.046.119a4.155 4.155 0 002.338 2.338l.119.047.034-.123c.072-.255.215-.483.413-.662a.077.077 0 01.053-.02h.014l2.045.325a.081.081 0 01.058.039 1.417 1.417 0 01.188.704c0 .778-.633 1.411-1.412 1.412z" fill="#FDFDFD"/><path d="M20.119 11.326a7.537 7.537 0 00-2.415-4.888 7.536 7.536 0 00-5.116-1.998c-4.168 0-7.56 3.392-7.56 7.56 0 1.4.386 2.763 1.116 3.95l-1.63 3.607 5.218-.555a7.495 7.495 0 003.65.518c.235-.025.473-.062.707-.109 3.49-.705 6.04-3.804 6.06-7.37v-.04c0-.227-.01-.454-.03-.675zM9.933 17.418l-2.886.308.861-1.91-.172-.23-.04-.054a5.983 5.983 0 01-1.143-3.53 6.042 6.042 0 016.035-6.036c3.118 0 5.761 2.433 6.016 5.538.013.166.02.334.02.498v.143A6.02 6.02 0 0113.26 18a5.972 5.972 0 01-3.218-.527l-.109-.053v-.002z" fill="#FDFDFD"/></svg>